<svg width="32" height="32" viewBox="0 0 32 32" fill="none" xmlns="http://www.w3.org/2000/svg">
<path d="M19.0338 4.74124C19.0677 4.61433 19.1263 4.49535 19.2063 4.3911C19.2862 4.28686 19.3859 4.19938 19.4997 4.13368C19.6134 4.06798 19.739 4.02533 19.8693 4.00819C19.9995 3.99104 20.1319 3.99972 20.2588 4.03374C22.1126 4.51743 23.804 5.48655 25.1587 6.84129C26.5135 8.19603 27.4826 9.88741 27.9663 11.7412C28.0003 11.8681 28.009 12.0005 27.9918 12.1307C27.9747 12.261 27.932 12.3866 27.8663 12.5003C27.8006 12.6141 27.7131 12.7138 27.6089 12.7937C27.5047 12.8737 27.3857 12.9323 27.2588 12.9662C27.1743 12.9884 27.0873 12.9998 27 13C26.7796 13 26.5655 12.9272 26.3907 12.7929C26.216 12.6586 26.0905 12.4704 26.0338 12.2575C25.6393 10.7441 24.8483 9.36338 23.7425 8.25752C22.6366 7.15166 21.2559 6.36073 19.7425 5.96624C19.6155 5.93243 19.4964 5.87391 19.392 5.79402C19.2876 5.71414 19.2 5.61446 19.1342 5.50068C19.0683 5.38691 19.0256 5.26127 19.0084 5.13096C18.9911 5.00064 18.9998 4.86821 19.0338 4.74124ZM18.7425 9.96624C20.4663 10.4262 21.5738 11.5337 22.0338 13.2575C22.0905 13.4704 22.216 13.6586 22.3907 13.7929C22.5655 13.9272 22.7796 14 23 14C23.0873 13.9998 23.1743 13.9884 23.2588 13.9662C23.3857 13.9323 23.5047 13.8737 23.6089 13.7937C23.7131 13.7138 23.8006 13.6141 23.8663 13.5003C23.932 13.3866 23.9747 13.261 23.9918 13.1307C24.009 13.0005 24.0003 12.8681 23.9663 12.7412C23.3263 10.3462 21.6538 8.67374 19.2588 8.03374C19.1319 7.99984 18.9995 7.99127 18.8693 8.00851C18.7391 8.02575 18.6136 8.06847 18.4999 8.13423C18.3862 8.19998 18.2866 8.28749 18.2067 8.39175C18.1268 8.49601 18.0683 8.61498 18.0344 8.74187C18.0005 8.86876 17.9919 9.00108 18.0092 9.13128C18.0264 9.26149 18.0691 9.38702 18.1349 9.50071C18.2006 9.6144 18.2881 9.71403 18.3924 9.79391C18.4967 9.87379 18.6156 9.93234 18.7425 9.96624ZM28.985 21.885C28.7621 23.5788 27.9303 25.1335 26.6449 26.2588C25.3595 27.3841 23.7084 28.0031 22 28C12.075 28 4.00001 19.925 4.00001 9.99999C3.99695 8.2916 4.61587 6.64052 5.74118 5.35511C6.86649 4.0697 8.42122 3.23787 10.115 3.01499C10.5433 2.96269 10.9771 3.05032 11.3515 3.26479C11.7259 3.47926 12.0209 3.80907 12.1925 4.20499L14.8325 10.0987V10.1137C14.9639 10.4168 15.0181 10.7477 14.9904 11.0768C14.9627 11.406 14.8539 11.7231 14.6738 12C14.6513 12.0337 14.6275 12.065 14.6025 12.0962L12 15.1812C12.9363 17.0837 14.9263 19.0562 16.8538 19.995L19.8963 17.4062C19.9261 17.3811 19.9574 17.3578 19.99 17.3362C20.2666 17.1517 20.5849 17.0391 20.916 17.0086C21.2471 16.978 21.5806 17.0305 21.8863 17.1612L21.9025 17.1687L27.7913 19.8075C28.1879 19.9785 28.5185 20.2732 28.7337 20.6477C28.9489 21.0222 29.037 21.4562 28.985 21.885ZM27 21.635C27 21.635 26.9913 21.635 26.9863 21.635L21.1113 19.0037L18.0675 21.5925C18.038 21.6175 18.0071 21.6409 17.975 21.6625C17.6872 21.8545 17.3545 21.9686 17.0094 21.9935C16.6644 22.0185 16.3187 21.9536 16.0063 21.805C13.665 20.6737 11.3313 18.3575 10.1988 16.0412C10.0488 15.7311 9.9815 15.3874 10.0034 15.0436C10.0253 14.6997 10.1357 14.3674 10.3238 14.0787C10.345 14.0448 10.3688 14.0127 10.395 13.9825L13 10.8937L10.375 5.01874C10.3745 5.01375 10.3745 5.00873 10.375 5.00374C9.16283 5.16186 8.04986 5.75645 7.24453 6.67613C6.43919 7.59582 5.99674 8.77754 6.00001 9.99999C6.00464 14.242 7.69184 18.309 10.6914 21.3086C13.691 24.3082 17.758 25.9954 22 26C23.2217 26.0042 24.4031 25.5633 25.3233 24.7597C26.2436 23.9561 26.8396 22.8449 27 21.6337V21.635Z" fill="#343330"/>
</svg>
