<svg width="32" height="32" viewBox="0 0 32 32" fill="none" xmlns="http://www.w3.org/2000/svg">
<path d="M28.415 3.58503C28.1635 3.33369 27.8496 3.15395 27.5055 3.0643C27.1614 2.97466 26.7997 2.97836 26.4575 3.07503H26.4388L2.44626 10.355C2.0557 10.4673 1.70863 10.696 1.45126 11.0105C1.19388 11.325 1.03842 11.7104 1.00557 12.1155C0.97272 12.5205 1.06404 12.926 1.26738 13.2778C1.47071 13.6297 1.77641 13.9112 2.14376 14.085L12.8463 19.1538L17.915 29.8563C18.075 30.199 18.3298 30.4888 18.6492 30.6915C18.9686 30.8941 19.3393 31.0012 19.7175 31C19.775 31 19.8325 30.9975 19.89 30.9925C20.2936 30.9598 20.6776 30.8045 20.9904 30.5473C21.3032 30.2902 21.5299 29.9435 21.64 29.5538L28.915 5.56128C28.915 5.55503 28.915 5.54878 28.915 5.54253C29.0129 5.20123 29.0182 4.84002 28.9304 4.496C28.8425 4.15198 28.6646 3.83756 28.415 3.58503ZM19.7288 28.9813L19.7225 28.9988L14.8025 18.6125L20.7075 12.7063C20.8871 12.5172 20.9858 12.2655 20.9824 12.0047C20.9791 11.7439 20.874 11.4948 20.6896 11.3104C20.5052 11.126 20.2561 11.0209 19.9953 11.0176C19.7346 11.0142 19.4828 11.1129 19.2938 11.2925L13.3875 17.1975L3.00001 12.2775H3.01751L27 5.00003L19.7288 28.9813Z" fill="#343330"/>
</svg>
