<svg width="139" height="18" viewBox="0 0 139 18" fill="none" xmlns="http://www.w3.org/2000/svg">
<path d="M1.992 0.464H0.024V17H7.416V15.032H1.992V0.464ZM15.9233 11.96V9.992H10.4993V2.432H15.7073V0.464H8.53125V17H15.9233V15.032H10.4993V11.96H15.9233ZM31.7528 8.288H26.7368V10.184H29.6888C29.6648 11.072 29.4248 11.912 28.9688 12.68C27.9368 14.024 26.4008 14.888 24.6728 14.888C21.5768 14.888 19.0808 12.128 19.0808 8.72C19.0808 5.312 21.5768 2.552 24.6728 2.552C26.4968 2.552 28.1048 3.512 29.1128 5L30.6968 3.584C29.2808 1.664 27.1208 0.439999 24.6728 0.439999C20.4248 0.439999 16.9688 4.16 16.9688 8.72C16.9688 13.28 20.4248 17 24.6728 17C26.6888 17 28.5128 16.16 29.8808 14.816C31.7528 13.112 32.1848 10.64 31.7528 8.288ZM39.5944 0.464H36.6904L33.2344 17H35.2024L38.1304 3.104L41.0584 17H43.1464L39.5944 0.464ZM36.7624 11.552L38.1544 13.856L39.4744 11.552L38.1784 8.648L36.7624 11.552ZM52.2894 14.888C49.1934 14.888 46.6974 12.104 46.6974 8.72C46.6974 5.312 49.1934 2.528 52.2894 2.528C54.0894 2.528 55.7214 3.488 56.7294 4.976L58.3134 3.584C56.8974 1.664 54.7374 0.439999 52.2894 0.439999C48.0414 0.439999 44.5854 4.136 44.5854 8.72C44.5854 13.28 48.0414 17 52.2894 17C54.7374 17 56.8974 15.752 58.3134 13.856L56.7294 12.44C55.7214 13.928 54.0894 14.888 52.2894 14.888ZM70.0652 0.464H67.8572L64.3532 6.752L60.8252 0.464H58.6172L63.3452 8.912V17H65.3132V8.936L70.0652 0.464ZM81.8198 9.32L82.3478 8.24H81.3878V0.464H79.4198V17H81.3878V10.208H82.3478L81.8198 9.32ZM86.6678 0.464V8.24H85.8038L86.2838 9.32L85.8038 10.208H86.6678V17H88.6358V0.464H86.6678ZM84.0998 6.44L83.2118 8.24L82.6838 9.32L83.2358 10.208L84.0998 11.648L85.4198 9.32L84.9158 8.24L84.0998 6.44ZM97.4222 0.487999C93.1742 0.487999 89.7422 4.184 89.7422 8.744C89.7422 13.304 93.1742 17 97.4222 17C101.646 17 105.078 13.304 105.078 8.744C105.078 4.184 101.646 0.487999 97.4222 0.487999ZM97.4222 14.888C94.3502 14.888 91.8542 12.128 91.8542 8.744C91.8542 5.36 94.3502 2.6 97.4222 2.6C100.494 2.6 102.99 5.36 102.99 8.744C102.99 12.128 100.494 14.888 97.4222 14.888ZM117.198 7.16V11.336L117.342 11.048L118.23 9.392L119.046 11.048L119.166 11.288V0.464H117.198L112.494 4.928L107.718 0.464H105.75V17H107.718V7.112L112.494 11.576L117.198 7.16ZM107.718 3.104L112.494 7.568L117.198 3.152V4.544L112.494 8.936L107.718 4.496V3.104ZM118.23 15.32L119.046 13.88L119.55 13.016L119.046 11.912L118.23 10.112L117.342 11.912L116.814 13.016L117.342 13.88L118.23 15.32ZM118.23 15.992L117.342 14.552L117.198 14.288V17H119.166V14.336L119.046 14.552L118.23 15.992ZM127.767 11.96V9.992H122.343V2.432H127.551V0.464H120.375V17H127.767V15.032H122.343V11.96H127.767ZM135.148 17.096C137.981 14.984 138.197 13.808 138.173 12.368L138.149 12.128C138.149 10.352 137.477 8.936 134.093 7.736C131.861 6.944 130.637 5.864 130.661 4.688C130.685 4.136 131.309 2.504 133.181 2.504C134.957 2.504 135.821 4.064 135.845 4.112L137.597 3.2C137.549 3.104 136.181 0.559999 133.181 0.559999C130.301 0.559999 128.74 2.936 128.692 4.664C128.668 6.128 129.485 8.168 133.421 9.584C136.205 10.568 136.205 11.384 136.205 12.128V12.416C136.205 13.232 136.229 13.832 133.973 15.512L135.148 17.096Z" fill="#1C1C1C"/>
</svg>
